# xmcd CD database file
#
# Track frame offsets:
#	150
#	15605
#	32592
#	59545
#
# Disc length: 1473 seconds
#
# Revision: 0
# Processed by: cddbd v1.5.2PL0 Copyright (c) Steve Scherf et al.
# Submitted via: CDex 1.79
#
DISCID=2a05bf04
DTITLE=Marlboro Country Music - That's Country My Friend
DYEAR=1996
DGENRE=Country
TTITLE0=Charlie Major - (I Do It) For The Money
TTITLE1=Martina McBride - Wild Angels
TTITLE2=Brooks and Dunn - My Maria
TTITLE3=DatenTrack
EXTD=YEAR: 1996
EXTT0=
EXTT1=
EXTT2=
EXTT3=
PLAYORDER=
